<svg width="43" height="32" viewBox="0 0 43 32" fill="none" xmlns="http://www.w3.org/2000/svg">
<path d="M11.25 2C11.25 1.30964 10.6904 0.75 10 0.75C9.30964 0.75 8.75 1.30964 8.75 2L11.25 2ZM9.11612 30.8839C9.60427 31.372 10.3957 31.372 10.8839 30.8839L18.8388 22.9289C19.327 22.4408 19.327 21.6493 18.8388 21.1612C18.3507 20.673 17.5592 20.673 17.0711 21.1612L10 28.2322L2.92893 21.1612C2.44078 20.673 1.64932 20.673 1.16117 21.1612C0.673011 21.6493 0.673011 22.4408 1.16117 22.9289L9.11612 30.8839ZM8.75 2L8.75 30L11.25 30L11.25 2L8.75 2Z" fill="#9A9A9A"/>
<path d="M31.6622 13H29.7986L33.9861 1.36364H36.0145L40.202 13H38.3384L35.0486 3.47727H34.9577L31.6622 13ZM31.9747 8.44318H38.0202V9.92045H31.9747V8.44318Z" fill="#9A9A9A"/>
<path d="M30.8703 31V29.8295L36.9896 20.875H30.8192V19.3636H39.1374V20.5341L33.018 29.4886H39.1885V31H30.8703Z" fill="#9A9A9A"/>
</svg>
