<svg width="20" height="20" viewBox="0 0 20 20" fill="none" xmlns="http://www.w3.org/2000/svg">
<path fill-rule="evenodd" clip-rule="evenodd" d="M14 3C14.5175 3 15.0044 2.86896 15.4294 2.63824C15.8754 2.39611 16.4438 2.33594 16.8151 2.68186C16.9887 2.84355 17.1565 3.01135 17.3181 3.18491C17.6641 3.5562 17.6039 4.12465 17.3618 4.57062C17.131 4.99556 17 5.48247 17 6C17 7.33396 17.8706 8.46457 19.0747 8.85458C19.5578 9.01107 19.9939 9.38117 19.9994 9.88897C19.9998 9.92593 20 9.96294 20 10C20 10.0371 19.9998 10.0741 19.9994 10.111C19.9939 10.6188 19.5578 10.9889 19.0747 11.1454C17.8706 11.5354 17 12.666 17 14C17 14.5175 17.131 15.0044 17.3618 15.4294C17.6039 15.8753 17.6641 16.4438 17.3181 16.8151C17.1564 16.9887 16.9887 17.1564 16.8151 17.3181C16.4438 17.6641 15.8753 17.6039 15.4294 17.3618C15.0044 17.131 14.5175 17 14 17C12.666 17 11.5354 17.8706 11.1454 19.0747C10.9889 19.5578 10.6188 19.9939 10.111 19.9994C10.0741 19.9998 10.0371 20 10 20C9.96294 20 9.92593 19.9998 9.88897 19.9994C9.38117 19.9939 9.01107 19.5578 8.85458 19.0747C8.46457 17.8706 7.33396 17 6 17C5.48247 17 4.99556 17.131 4.57062 17.3618C4.12465 17.6039 3.5562 17.6641 3.18491 17.3181C3.01135 17.1565 2.84355 16.9887 2.68185 16.8151C2.33593 16.4438 2.3961 15.8753 2.63824 15.4294C2.86896 15.0044 3 14.5175 3 14C3 12.666 2.12936 11.5354 0.925317 11.1454C0.442196 10.9889 0.00612749 10.6188 0.000603591 10.111C0.000201542 10.0741 0 10.0371 0 10C0 9.96294 0.000201543 9.92594 0.000603591 9.88898C0.00612749 9.38117 0.442197 9.01108 0.925317 8.85458C2.12936 8.46457 3 7.33396 3 6C3 5.48247 2.86896 4.99556 2.63824 4.57062C2.39611 4.12465 2.33594 3.55619 2.68186 3.1849C2.84355 3.01135 3.01135 2.84355 3.1849 2.68186C3.55619 2.33594 4.12465 2.39611 4.57062 2.63824C4.99556 2.86896 5.48248 3 6 3C7.33396 3 8.46457 2.12936 8.85458 0.925317C9.01108 0.442196 9.38117 0.00612749 9.88898 0.000603591C9.92594 0.000201542 9.96294 0 10 0C10.0371 0 10.0741 0.000201543 10.111 0.000603591C10.6188 0.00612749 10.9889 0.442197 11.1454 0.925317C11.5354 2.12936 12.666 3 14 3ZM10 15C12.7614 15 15 12.7614 15 10C15 7.23858 12.7614 5 10 5C7.23858 5 5 7.23858 5 10C5 12.7614 7.23858 15 10 15Z" fill="#B1B1B1"/>
</svg>
