<svg width="28" height="28" viewBox="0 0 28 28" fill="none" xmlns="http://www.w3.org/2000/svg">
<path d="M25.9941 12.8691L17.2441 21.6191C17.1217 21.7416 16.9657 21.825 16.7959 21.8589C16.6261 21.8927 16.45 21.8753 16.2901 21.8091C16.1301 21.7428 15.9934 21.6305 15.8972 21.4865C15.8011 21.3425 15.7499 21.1732 15.75 21V16.6502C9.50468 17.0045 5.22265 21.0547 4.02062 22.3377C3.83187 22.5392 3.58436 22.6762 3.31329 22.7289C3.04223 22.7817 2.76144 22.7476 2.51087 22.6315C2.2603 22.5154 2.05273 22.3233 1.91769 22.0824C1.78266 21.8415 1.72703 21.5642 1.75874 21.2899C2.16453 17.7614 4.09718 14.3675 7.20124 11.7338C9.77921 9.54627 12.9128 8.1583 15.75 7.91549V3.50002C15.7499 3.32686 15.8011 3.15755 15.8972 3.01353C15.9934 2.86951 16.1301 2.75726 16.2901 2.69097C16.45 2.62469 16.6261 2.60736 16.7959 2.64118C16.9657 2.675 17.1217 2.75845 17.2441 2.88096L25.9941 11.631C26.0754 11.7122 26.14 11.8087 26.184 11.9149C26.228 12.0212 26.2507 12.135 26.2507 12.25C26.2507 12.365 26.228 12.4789 26.184 12.5851C26.14 12.6913 26.0754 12.7878 25.9941 12.8691Z" fill="#FAFAFA"/>
</svg>
