<svg width="107" height="37" viewBox="0 0 107 37" fill="none" xmlns="http://www.w3.org/2000/svg">
<path d="M15.5781 19.9219C15.2448 20.474 14.8906 20.9948 14.5156 21.4844C14.1406 21.9635 13.7448 22.3854 13.3281 22.75C12.9219 23.1042 12.5 23.3802 12.0625 23.5781C11.625 23.7865 11.1771 23.8906 10.7188 23.8906C10.4896 23.8906 10.2448 23.8438 9.98438 23.75C9.73438 23.6562 9.5 23.5 9.28125 23.2812C9.07292 23.0729 8.89583 22.7917 8.75 22.4375C8.61458 22.0833 8.54688 21.6406 8.54688 21.1094V3.09375C7.82812 3.1875 7.14583 3.39062 6.5 3.70312C5.86458 4.01562 5.30729 4.44271 4.82812 4.98438C4.35938 5.52604 3.98438 6.18229 3.70312 6.95312C3.43229 7.72396 3.29688 8.61458 3.29688 9.625C3.29688 10.2708 3.36458 10.8542 3.5 11.375C3.63542 11.8854 3.79688 12.3229 3.98438 12.6875C4.17188 13.0417 4.35938 13.3177 4.54688 13.5156C4.73438 13.7135 4.88021 13.8125 4.98438 13.8125C5.07812 13.8125 5.16667 13.7917 5.25 13.75C5.33333 13.7083 5.41667 13.6875 5.5 13.6875C5.66667 13.6875 5.75 13.8177 5.75 14.0781C5.75 14.4115 5.67188 14.7344 5.51562 15.0469C5.36979 15.349 5.18229 15.599 4.95312 15.7969C4.72396 15.9844 4.47396 16.1042 4.20312 16.1562C3.93229 16.2083 3.68229 16.151 3.45312 15.9844C3.17188 15.7969 2.86979 15.5104 2.54688 15.125C2.23438 14.7396 1.94271 14.276 1.67188 13.7344C1.41146 13.1823 1.19271 12.5625 1.01562 11.875C0.848958 11.1875 0.765625 10.4375 0.765625 9.625C0.765625 8.5 0.901042 7.49479 1.17188 6.60938C1.44271 5.71354 1.80208 4.93229 2.25 4.26562C2.70833 3.59896 3.23958 3.03125 3.84375 2.5625C4.44792 2.09375 5.08333 1.71354 5.75 1.42188C6.41667 1.13021 7.09375 0.921875 7.78125 0.796875C8.46875 0.661458 9.125 0.59375 9.75 0.59375C9.91667 0.59375 10.0781 0.630208 10.2344 0.703125C10.3906 0.765625 10.526 0.859375 10.6406 0.984375C10.7552 1.09896 10.849 1.23958 10.9219 1.40625C10.9948 1.57292 11.0312 1.75 11.0312 1.9375V20.9219C11.0312 21.1302 11.0625 21.2604 11.125 21.3125C11.1979 21.3542 11.2656 21.375 11.3281 21.375C11.4844 21.375 11.6979 21.2656 11.9688 21.0469C12.2396 20.8177 12.5312 20.5208 12.8438 20.1562C13.1667 19.7812 13.4896 19.3542 13.8125 18.875C14.1354 18.3854 14.4271 17.8802 14.6875 17.3594C14.9479 16.8385 15.1615 16.3177 15.3281 15.7969C15.4948 15.276 15.5781 14.7865 15.5781 14.3281V2.17188C15.5781 1.86979 15.5573 1.65104 15.5156 1.51562C15.474 1.38021 15.4531 1.25521 15.4531 1.14062C15.4531 0.984375 15.5312 0.854167 15.6875 0.75C15.8542 0.645833 16.0521 0.59375 16.2812 0.59375C16.8125 0.59375 17.2448 0.734375 17.5781 1.01562C17.9115 1.28646 18.0781 1.61979 18.0781 2.01562V15.8906C18.0781 16.9427 18.0833 17.8542 18.0938 18.625C18.1146 19.3854 18.1406 20.0417 18.1719 20.5938C18.2031 21.1354 18.2344 21.5938 18.2656 21.9688C18.2969 22.3333 18.3281 22.6458 18.3594 22.9062C18.4219 23 18.4531 23.0729 18.4531 23.125C18.4531 23.2292 18.401 23.3281 18.2969 23.4219C18.1927 23.5156 18.0625 23.5938 17.9062 23.6562C17.75 23.7292 17.5729 23.7865 17.375 23.8281C17.1875 23.8698 17.0052 23.8906 16.8281 23.8906C16.5469 23.8906 16.3281 23.8073 16.1719 23.6406C16.0156 23.4844 15.8958 23.2448 15.8125 22.9219C15.7396 22.5885 15.6875 22.1771 15.6562 21.6875C15.625 21.1979 15.599 20.6302 15.5781 19.9844V19.9219ZM23.4531 13.5312C23.5677 13.3125 23.6771 13.0208 23.7812 12.6562C23.8958 12.2812 24 11.8698 24.0938 11.4219C24.1979 10.974 24.2917 10.5052 24.375 10.0156C24.4583 9.52604 24.5312 9.04688 24.5938 8.57812C24.6562 8.10938 24.7031 7.67188 24.7344 7.26562C24.776 6.84896 24.7969 6.49479 24.7969 6.20312C24.7969 5.14062 24.7188 4.36458 24.5625 3.875C24.4062 3.375 24.1979 3.125 23.9375 3.125C23.8542 3.125 23.7812 3.16667 23.7188 3.25C23.6562 3.33333 23.6042 3.44271 23.5625 3.57812C23.5208 3.70312 23.4896 3.84375 23.4688 4C23.4583 4.14583 23.4531 4.28125 23.4531 4.40625V13.5312ZM28 18.3594C28.0625 18.0469 28.1562 17.8229 28.2812 17.6875C28.4167 17.5417 28.5573 17.4635 28.7031 17.4531C28.8594 17.4323 29.0156 17.4688 29.1719 17.5625C29.3281 17.6458 29.4635 17.7604 29.5781 17.9062C29.6927 18.0521 29.776 18.2188 29.8281 18.4062C29.8906 18.5833 29.901 18.7604 29.8594 18.9375C29.7135 19.3646 29.5052 19.8646 29.2344 20.4375C28.9635 21.0104 28.6198 21.5521 28.2031 22.0625C27.7865 22.5729 27.2969 23.0052 26.7344 23.3594C26.1719 23.7135 25.526 23.8906 24.7969 23.8906C24.1823 23.8906 23.6406 23.7865 23.1719 23.5781C22.7031 23.3802 22.3073 23.099 21.9844 22.7344C21.6719 22.3594 21.4323 21.9167 21.2656 21.4062C21.1094 20.8854 21.0312 20.3073 21.0312 19.6719V5.10938C21.0312 4.51562 21.1042 3.96875 21.25 3.46875C21.4062 2.95833 21.6146 2.52604 21.875 2.17188C22.1458 1.80729 22.4583 1.52604 22.8125 1.32812C23.1667 1.11979 23.5417 1.01562 23.9375 1.01562C24.4062 1.01562 24.8021 1.10417 25.125 1.28125C25.4479 1.44792 25.7135 1.67188 25.9219 1.95312C26.1302 2.23438 26.2917 2.55729 26.4062 2.92188C26.5312 3.28646 26.6198 3.66146 26.6719 4.04688C26.724 4.42188 26.7552 4.79688 26.7656 5.17188C26.776 5.53646 26.7812 5.86979 26.7812 6.17188C26.7812 6.95312 26.7083 7.77604 26.5625 8.64062C26.4167 9.49479 26.2292 10.3385 26 11.1719C25.7812 12.0052 25.5365 12.8073 25.2656 13.5781C25.0052 14.3385 24.75 15.0156 24.5 15.6094C24.2604 16.2031 24.0417 16.6875 23.8438 17.0625C23.6562 17.4375 23.526 17.6562 23.4531 17.7188V19.5781C23.4531 20.224 23.5885 20.7552 23.8594 21.1719C24.1302 21.5781 24.5625 21.7812 25.1562 21.7812C25.5208 21.7812 25.8594 21.6719 26.1719 21.4531C26.4948 21.224 26.776 20.9427 27.0156 20.6094C27.2656 20.2656 27.474 19.8958 27.6406 19.5C27.8073 19.0938 27.9271 18.7135 28 18.3594ZM25.2031 7.95312C25.4427 7.97396 25.7083 7.98958 26 8C26.25 8.02083 26.5521 8.03646 26.9062 8.04688C27.2604 8.04688 27.6562 8.05208 28.0938 8.0625V2.64062C28.0938 2.41146 28.0729 2.22917 28.0312 2.09375C28 1.95833 27.9635 1.85417 27.9219 1.78125C27.8906 1.69792 27.8542 1.63542 27.8125 1.59375C27.7812 1.54167 27.7656 1.48958 27.7656 1.4375C27.7656 1.375 27.7969 1.32292 27.8594 1.28125C27.9219 1.23958 28.0052 1.20312 28.1094 1.17188C28.2135 1.14062 28.3229 1.11979 28.4375 1.10938C28.5625 1.08854 28.6823 1.07812 28.7969 1.07812C29.3281 1.07812 29.7448 1.21875 30.0469 1.5C30.3594 1.77083 30.5156 2.09896 30.5156 2.48438V8.09375C31.4948 8.09375 32.526 8.08333 33.6094 8.0625C34.7031 8.04167 35.7969 8.00521 36.8906 7.95312C37.0365 7.79688 37.151 7.73958 37.2344 7.78125C37.3281 7.82292 37.3854 7.92188 37.4062 8.07812C37.4375 8.23438 37.4427 8.42708 37.4219 8.65625C37.401 8.88542 37.3594 9.10938 37.2969 9.32812C37.2344 9.53646 37.1458 9.71875 37.0312 9.875C36.9271 10.0312 36.8073 10.1094 36.6719 10.1094C35.3906 10.1406 34.2552 10.1615 33.2656 10.1719C32.2865 10.1719 31.3698 10.1719 30.5156 10.1719V20.3125C30.5156 20.8333 30.6146 21.2083 30.8125 21.4375C31.0104 21.6667 31.276 21.7812 31.6094 21.7812C31.9323 21.7812 32.2083 21.6667 32.4375 21.4375C32.6771 21.2083 32.8802 20.9219 33.0469 20.5781C33.224 20.2344 33.3646 19.8646 33.4688 19.4688C33.5833 19.0625 33.6771 18.6823 33.75 18.3281C33.8125 17.9948 33.9167 17.7552 34.0625 17.6094C34.2083 17.4531 34.3594 17.375 34.5156 17.375C34.6406 17.375 34.7708 17.4167 34.9062 17.5C35.0417 17.5729 35.1615 17.6719 35.2656 17.7969C35.3802 17.9219 35.4688 18.0625 35.5312 18.2188C35.6042 18.375 35.6406 18.5312 35.6406 18.6875C35.6406 18.7083 35.6406 18.7344 35.6406 18.7656C35.6406 18.7969 35.6302 18.8438 35.6094 18.9062C35.474 19.4375 35.2865 19.9948 35.0469 20.5781C34.8177 21.1615 34.5156 21.6979 34.1406 22.1875C33.776 22.6771 33.3385 23.0833 32.8281 23.4062C32.3177 23.7292 31.7188 23.8906 31.0312 23.8906C30.6042 23.8906 30.2083 23.8229 29.8438 23.6875C29.4896 23.5625 29.1823 23.3542 28.9219 23.0625C28.6615 22.7812 28.4583 22.4167 28.3125 21.9688C28.1667 21.5208 28.0938 20.9792 28.0938 20.3438V10.1719C27.7396 10.1719 27.4219 10.1719 27.1406 10.1719C26.8698 10.1615 26.6406 10.151 26.4531 10.1406C26.2344 10.1302 26.0417 10.1198 25.875 10.1094C25.625 10.1094 25.4062 10 25.2188 9.78125C25.0208 9.55208 24.8854 9.30208 24.8125 9.03125C24.7292 8.76042 24.7188 8.51562 24.7812 8.29688C24.8333 8.06771 24.974 7.95312 25.2031 7.95312ZM40.875 23.8906C40.5 23.8906 40.1146 23.8333 39.7188 23.7188C39.3333 23.6042 38.9792 23.4062 38.6562 23.125C38.3438 22.8438 38.0833 22.474 37.875 22.0156C37.6771 21.5469 37.5781 20.9583 37.5781 20.25C37.5781 19.2188 37.7135 18.1302 37.9844 16.9844C38.2656 15.8281 38.6667 14.5573 39.1875 13.1719H36.75H36.3906C36.3802 13.4844 36.3594 13.8802 36.3281 14.3594C36.3073 14.8385 36.2656 15.349 36.2031 15.8906C36.1406 16.4323 36.0573 16.9792 35.9531 17.5312C35.8594 18.0833 35.7396 18.5938 35.5938 19.0625C35.4896 19.3958 35.3229 19.5885 35.0938 19.6406C34.875 19.6927 34.6562 19.6562 34.4375 19.5312C34.2188 19.3958 34.0417 19.2031 33.9062 18.9531C33.7708 18.7031 33.7396 18.4427 33.8125 18.1719C33.8958 17.849 33.9688 17.4583 34.0312 17C34.0938 16.5312 34.1406 16.0417 34.1719 15.5312C34.2135 15.0104 34.2448 14.4948 34.2656 13.9844C34.2865 13.4635 34.3021 13 34.3125 12.5938C33.9167 12.375 33.5885 12.099 33.3281 11.7656C33.0677 11.4219 32.9375 11.0156 32.9375 10.5469C32.9375 10.3281 32.9792 10.1302 33.0625 9.95312C33.1562 9.76562 33.276 9.60938 33.4219 9.48438C33.5677 9.34896 33.7396 9.25 33.9375 9.1875C34.1354 9.11458 34.3385 9.07812 34.5469 9.07812C34.7344 9.07812 34.9271 9.10417 35.125 9.15625C35.3333 9.20833 35.526 9.30208 35.7031 9.4375C35.8906 9.57292 36.0573 9.75 36.2031 9.96875C36.349 10.1875 36.4688 10.4583 36.5625 10.7812C36.8229 10.8125 37.0417 10.8385 37.2188 10.8594C37.4062 10.8698 37.5625 10.8802 37.6875 10.8906C37.8125 10.901 37.9167 10.9062 38 10.9062C38.0833 10.9062 38.1667 10.9062 38.25 10.9062H39.9219C40.0156 10.9062 40.151 10.9635 40.3281 11.0781C40.5156 11.1927 40.6979 11.3438 40.875 11.5312C41.0521 11.7083 41.1979 11.901 41.3125 12.1094C41.4375 12.3177 41.4844 12.5156 41.4531 12.7031C41.4531 12.7656 41.4167 12.9167 41.3438 13.1562C41.2708 13.3958 41.1823 13.6979 41.0781 14.0625C40.974 14.4271 40.8594 14.849 40.7344 15.3281C40.6094 15.7969 40.4948 16.2917 40.3906 16.8125C40.2865 17.3333 40.1979 17.875 40.125 18.4375C40.0521 18.9896 40.0156 19.5312 40.0156 20.0625C40.0156 20.2812 40.0417 20.4948 40.0938 20.7031C40.1458 20.9115 40.224 21.099 40.3281 21.2656C40.4323 21.4219 40.5625 21.5469 40.7188 21.6406C40.8854 21.7344 41.0781 21.7812 41.2969 21.7812C41.6615 21.7812 41.974 21.6667 42.2344 21.4375C42.4948 21.2083 42.7135 20.9219 42.8906 20.5781C43.0677 20.2344 43.2083 19.8646 43.3125 19.4688C43.4271 19.0625 43.5208 18.6823 43.5938 18.3281C43.6562 17.9948 43.7604 17.7552 43.9062 17.6094C44.0521 17.4531 44.2031 17.375 44.3594 17.375C44.4844 17.375 44.6146 17.4167 44.75 17.5C44.8854 17.5729 45.0052 17.6719 45.1094 17.7969C45.224 17.9219 45.3125 18.0625 45.375 18.2188C45.4479 18.375 45.4844 18.5312 45.4844 18.6875C45.4844 18.7396 45.4792 18.7812 45.4688 18.8125C45.4583 18.8438 45.4531 18.875 45.4531 18.9062C45.3073 19.4375 45.1146 19.9948 44.875 20.5781C44.6458 21.1615 44.349 21.6979 43.9844 22.1875C43.6198 22.6771 43.1823 23.0833 42.6719 23.4062C42.1615 23.7292 41.5625 23.8906 40.875 23.8906ZM52.7969 21.7812C53.1198 21.7812 53.3958 21.6667 53.625 21.4375C53.8646 21.2083 54.0677 20.9219 54.2344 20.5781C54.4115 20.2344 54.5521 19.8646 54.6562 19.4688C54.7708 19.0625 54.8646 18.6823 54.9375 18.3281C55.0104 17.9948 55.1146 17.7552 55.25 17.6094C55.3958 17.4531 55.5521 17.375 55.7188 17.375C55.8438 17.375 55.9688 17.4167 56.0938 17.5C56.2292 17.5729 56.349 17.6719 56.4531 17.7969C56.5677 17.9219 56.6562 18.0625 56.7188 18.2188C56.7917 18.375 56.8281 18.5312 56.8281 18.6875C56.8281 18.7083 56.8281 18.7344 56.8281 18.7656C56.8281 18.7969 56.8177 18.8438 56.7969 18.9062C56.6615 19.4375 56.474 19.9948 56.2344 20.5781C56.0052 21.1615 55.7083 21.6979 55.3438 22.1875C54.9792 22.6771 54.5365 23.0833 54.0156 23.4062C53.5052 23.7292 52.9062 23.8906 52.2188 23.8906C51.6562 23.8906 51.1667 23.7708 50.75 23.5312C50.3333 23.2917 50.0052 22.974 49.7656 22.5781C49.4427 22.9427 49.0521 23.25 48.5938 23.5C48.1458 23.7604 47.6198 23.8906 47.0156 23.8906C46.3906 23.8906 45.8385 23.7656 45.3594 23.5156C44.8906 23.2656 44.4948 22.9271 44.1719 22.5C43.849 22.0625 43.6042 21.5521 43.4375 20.9688C43.2812 20.375 43.2031 19.7396 43.2031 19.0625C43.2031 17.7292 43.4167 16.5312 43.8438 15.4688C44.2708 14.4062 44.8385 13.5052 45.5469 12.7656C46.2552 12.0156 47.0625 11.4427 47.9688 11.0469C48.8854 10.651 49.8333 10.4531 50.8125 10.4531C51.25 10.4531 51.6042 10.5729 51.875 10.8125C52.1458 11.0521 52.2812 11.3802 52.2812 11.7969C52.2812 12.0677 52.25 12.2604 52.1875 12.375C52.1354 12.4792 52.0312 12.5312 51.875 12.5312C51.7292 12.5312 51.5781 12.5208 51.4219 12.5C51.2656 12.4792 51.1042 12.4688 50.9375 12.4688C50.3333 12.4688 49.7188 12.6042 49.0938 12.875C48.4688 13.1354 47.901 13.5417 47.3906 14.0938C46.8906 14.6354 46.4792 15.3281 46.1562 16.1719C45.8333 17.0052 45.6719 18 45.6719 19.1562C45.6719 20 45.8333 20.651 46.1562 21.1094C46.4792 21.5573 46.9219 21.7812 47.4844 21.7812C47.9219 21.7812 48.2865 21.6198 48.5781 21.2969C48.8698 20.9635 49.1042 20.5729 49.2812 20.125V15.1875C49.2812 15.0312 49.2708 14.901 49.25 14.7969C49.2396 14.6927 49.224 14.6042 49.2031 14.5312C49.1927 14.4583 49.1823 14.3958 49.1719 14.3438C49.1615 14.2812 49.1562 14.224 49.1562 14.1719C49.1562 14.0052 49.2344 13.875 49.3906 13.7812C49.5573 13.6771 49.7552 13.625 49.9844 13.625C50.5156 13.625 50.9375 13.7656 51.25 14.0469C51.5625 14.3177 51.7188 14.6458 51.7188 15.0312V20.3125C51.7188 20.4896 51.7396 20.6667 51.7812 20.8438C51.8229 21.0104 51.8854 21.1667 51.9688 21.3125C52.0521 21.4479 52.1615 21.5625 52.2969 21.6562C52.4427 21.7396 52.6094 21.7812 52.7969 21.7812ZM57.0156 32.5C57.0156 31.6875 57.1198 30.9688 57.3281 30.3438C57.5469 29.7188 57.8385 29.1458 58.2031 28.625C58.5677 28.1042 58.9896 27.6146 59.4688 27.1562C59.9479 26.7083 60.4531 26.25 60.9844 25.7812V22.4219C60.6615 22.7448 60.2812 23.0156 59.8438 23.2344C59.4167 23.4635 58.9219 23.5781 58.3594 23.5781C57.7344 23.5781 57.1823 23.4531 56.7031 23.2031C56.2344 22.9531 55.8385 22.6146 55.5156 22.1875C55.1927 21.75 54.9479 21.2396 54.7812 20.6562C54.625 20.0625 54.5469 19.4271 54.5469 18.75C54.5469 17.4167 54.7604 16.2188 55.1875 15.1562C55.6146 14.0938 56.1823 13.1927 56.8906 12.4531C57.599 11.7031 58.4062 11.1302 59.3125 10.7344C60.2292 10.3385 61.1771 10.1406 62.1562 10.1406C62.5938 10.1406 62.9479 10.2604 63.2188 10.5C63.4896 10.7292 63.625 11.0573 63.625 11.4844C63.625 11.7552 63.5938 11.9479 63.5312 12.0625C63.4792 12.1667 63.375 12.2188 63.2188 12.2188C63.0729 12.2188 62.9219 12.2083 62.7656 12.1875C62.6094 12.1667 62.4479 12.1562 62.2812 12.1562C61.6771 12.1562 61.0625 12.2917 60.4375 12.5625C59.8125 12.8229 59.2448 13.2292 58.7344 13.7812C58.2344 14.3229 57.8229 15.0156 57.5 15.8594C57.1771 16.6927 57.0156 17.6875 57.0156 18.8438C57.0156 19.6771 57.1771 20.3229 57.5 20.7812C57.8229 21.2396 58.2656 21.4688 58.8281 21.4688C59.151 21.4688 59.4323 21.375 59.6719 21.1875C59.9115 20.9896 60.1198 20.7448 60.2969 20.4531C60.474 20.1615 60.6146 19.8438 60.7188 19.5C60.8333 19.1458 60.9219 18.8073 60.9844 18.4844V14.875C60.9844 14.5729 60.9583 14.3542 60.9062 14.2188C60.8646 14.0833 60.8438 13.9583 60.8438 13.8438C60.8438 13.6875 60.9271 13.5573 61.0938 13.4531C61.2604 13.349 61.4583 13.2969 61.6875 13.2969C62.2188 13.2969 62.6354 13.4375 62.9375 13.7188C63.25 13.9896 63.4062 14.3229 63.4062 14.7188V23.4219C63.9896 22.776 64.5208 22.0417 65 21.2188C65.4896 20.3958 65.8958 19.4323 66.2188 18.3281C66.3229 17.9948 66.4375 17.7552 66.5625 17.6094C66.6875 17.4531 66.8333 17.375 67 17.375C67.125 17.375 67.25 17.4167 67.375 17.5C67.5104 17.5729 67.6302 17.6719 67.7344 17.7969C67.849 17.9219 67.9375 18.0625 68 18.2188C68.0729 18.375 68.1094 18.5312 68.1094 18.6875C68.1094 18.7083 68.1094 18.75 68.1094 18.8125C68.1094 18.875 68.099 18.9375 68.0781 19C67.8073 19.9271 67.4896 20.75 67.125 21.4688C66.7708 22.1771 66.3906 22.8125 65.9844 23.375C65.5781 23.9375 65.1562 24.4375 64.7188 24.875C64.2812 25.3229 63.8438 25.7344 63.4062 26.1094V31.6406C63.4062 32.4844 63.3073 33.1927 63.1094 33.7656C62.9219 34.349 62.6719 34.8177 62.3594 35.1719C62.0469 35.5365 61.6875 35.7969 61.2812 35.9531C60.8854 36.1094 60.4844 36.1875 60.0781 36.1875C59.6302 36.1875 59.2188 36.0885 58.8438 35.8906C58.4688 35.7031 58.1458 35.4427 57.875 35.1094C57.6042 34.776 57.3906 34.3854 57.2344 33.9375C57.0885 33.4896 57.0156 33.0104 57.0156 32.5ZM60.0781 34.1719C60.3385 34.1719 60.5312 34.0677 60.6562 33.8594C60.7812 33.651 60.8646 33.4062 60.9062 33.125C60.9583 32.8542 60.9844 32.5781 60.9844 32.2969C60.9844 32.0156 60.9844 31.7969 60.9844 31.6406V28.2188C60.4635 28.7396 60.0417 29.3281 59.7188 29.9844C59.4062 30.6406 59.25 31.4479 59.25 32.4062C59.25 32.9062 59.3229 33.3229 59.4688 33.6562C59.6146 34 59.8177 34.1719 60.0781 34.1719ZM73.3438 23.8906C72.9688 23.8906 72.5833 23.8333 72.1875 23.7188C71.8021 23.6042 71.4479 23.4062 71.125 23.125C70.8125 22.8438 70.5521 22.474 70.3438 22.0156C70.1458 21.5469 70.0469 20.9583 70.0469 20.25C70.0469 19.2188 70.1823 18.1302 70.4531 16.9844C70.7344 15.8281 71.1354 14.5573 71.6562 13.1719H69.2188H68.8594C68.849 13.4844 68.8281 13.8802 68.7969 14.3594C68.776 14.8385 68.7344 15.349 68.6719 15.8906C68.6094 16.4323 68.526 16.9792 68.4219 17.5312C68.3281 18.0833 68.2083 18.5938 68.0625 19.0625C67.9583 19.3958 67.7917 19.5885 67.5625 19.6406C67.3438 19.6927 67.125 19.6562 66.9062 19.5312C66.6875 19.3958 66.5104 19.2031 66.375 18.9531C66.2396 18.7031 66.2083 18.4427 66.2812 18.1719C66.3646 17.849 66.4375 17.4583 66.5 17C66.5625 16.5312 66.6094 16.0417 66.6406 15.5312C66.6823 15.0104 66.7135 14.4948 66.7344 13.9844C66.7552 13.4635 66.7708 13 66.7812 12.5938C66.3854 12.375 66.0573 12.099 65.7969 11.7656C65.5365 11.4219 65.4062 11.0156 65.4062 10.5469C65.4062 10.3281 65.4479 10.1302 65.5312 9.95312C65.625 9.76562 65.7448 9.60938 65.8906 9.48438C66.0365 9.34896 66.2083 9.25 66.4062 9.1875C66.6042 9.11458 66.8073 9.07812 67.0156 9.07812C67.2031 9.07812 67.3958 9.10417 67.5938 9.15625C67.8021 9.20833 67.9948 9.30208 68.1719 9.4375C68.3594 9.57292 68.526 9.75 68.6719 9.96875C68.8177 10.1875 68.9375 10.4583 69.0312 10.7812C69.2917 10.8125 69.5104 10.8385 69.6875 10.8594C69.875 10.8698 70.0312 10.8802 70.1562 10.8906C70.2812 10.901 70.3854 10.9062 70.4688 10.9062C70.5521 10.9062 70.6354 10.9062 70.7188 10.9062H72.3906C72.4844 10.9062 72.6198 10.9635 72.7969 11.0781C72.9844 11.1927 73.1667 11.3438 73.3438 11.5312C73.5208 11.7083 73.6667 11.901 73.7812 12.1094C73.9062 12.3177 73.9531 12.5156 73.9219 12.7031C73.9219 12.7656 73.8854 12.9167 73.8125 13.1562C73.7396 13.3958 73.651 13.6979 73.5469 14.0625C73.4427 14.4271 73.3281 14.849 73.2031 15.3281C73.0781 15.7969 72.9635 16.2917 72.8594 16.8125C72.7552 17.3333 72.6667 17.875 72.5938 18.4375C72.5208 18.9896 72.4844 19.5312 72.4844 20.0625C72.4844 20.2812 72.5104 20.4948 72.5625 20.7031C72.6146 20.9115 72.6927 21.099 72.7969 21.2656C72.901 21.4219 73.0312 21.5469 73.1875 21.6406C73.3542 21.7344 73.5469 21.7812 73.7656 21.7812C74.1302 21.7812 74.4427 21.6667 74.7031 21.4375C74.9635 21.2083 75.1823 20.9219 75.3594 20.5781C75.5365 20.2344 75.6771 19.8646 75.7812 19.4688C75.8958 19.0625 75.9896 18.6823 76.0625 18.3281C76.125 17.9948 76.2292 17.7552 76.375 17.6094C76.5208 17.4531 76.6719 17.375 76.8281 17.375C76.9531 17.375 77.0833 17.4167 77.2188 17.5C77.3542 17.5729 77.474 17.6719 77.5781 17.7969C77.6927 17.9219 77.7812 18.0625 77.8438 18.2188C77.9167 18.375 77.9531 18.5312 77.9531 18.6875C77.9531 18.7396 77.9479 18.7812 77.9375 18.8125C77.9271 18.8438 77.9219 18.875 77.9219 18.9062C77.776 19.4375 77.5833 19.9948 77.3438 20.5781C77.1146 21.1615 76.8177 21.6979 76.4531 22.1875C76.0885 22.6771 75.651 23.0833 75.1406 23.4062C74.6302 23.7292 74.0312 23.8906 73.3438 23.8906ZM85.2656 21.7812C85.5885 21.7812 85.8646 21.6667 86.0938 21.4375C86.3333 21.2083 86.5365 20.9219 86.7031 20.5781C86.8802 20.2344 87.0208 19.8646 87.125 19.4688C87.2396 19.0625 87.3333 18.6823 87.4062 18.3281C87.4792 17.9948 87.5833 17.7552 87.7188 17.6094C87.8646 17.4531 88.0208 17.375 88.1875 17.375C88.3125 17.375 88.4375 17.4167 88.5625 17.5C88.6979 17.5729 88.8177 17.6719 88.9219 17.7969C89.0365 17.9219 89.125 18.0625 89.1875 18.2188C89.2604 18.375 89.2969 18.5312 89.2969 18.6875C89.2969 18.7083 89.2969 18.7344 89.2969 18.7656C89.2969 18.7969 89.2865 18.8438 89.2656 18.9062C89.1302 19.4375 88.9427 19.9948 88.7031 20.5781C88.474 21.1615 88.1771 21.6979 87.8125 22.1875C87.4479 22.6771 87.0052 23.0833 86.4844 23.4062C85.974 23.7292 85.375 23.8906 84.6875 23.8906C84.125 23.8906 83.6354 23.7708 83.2188 23.5312C82.8021 23.2917 82.474 22.974 82.2344 22.5781C81.9115 22.9427 81.5208 23.25 81.0625 23.5C80.6146 23.7604 80.0885 23.8906 79.4844 23.8906C78.8594 23.8906 78.3073 23.7656 77.8281 23.5156C77.3594 23.2656 76.9635 22.9271 76.6406 22.5C76.3177 22.0625 76.0729 21.5521 75.9062 20.9688C75.75 20.375 75.6719 19.7396 75.6719 19.0625C75.6719 17.7292 75.8854 16.5312 76.3125 15.4688C76.7396 14.4062 77.3073 13.5052 78.0156 12.7656C78.724 12.0156 79.5312 11.4427 80.4375 11.0469C81.3542 10.651 82.3021 10.4531 83.2812 10.4531C83.7188 10.4531 84.0729 10.5729 84.3438 10.8125C84.6146 11.0521 84.75 11.3802 84.75 11.7969C84.75 12.0677 84.7188 12.2604 84.6562 12.375C84.6042 12.4792 84.5 12.5312 84.3438 12.5312C84.1979 12.5312 84.0469 12.5208 83.8906 12.5C83.7344 12.4792 83.5729 12.4688 83.4062 12.4688C82.8021 12.4688 82.1875 12.6042 81.5625 12.875C80.9375 13.1354 80.3698 13.5417 79.8594 14.0938C79.3594 14.6354 78.9479 15.3281 78.625 16.1719C78.3021 17.0052 78.1406 18 78.1406 19.1562C78.1406 20 78.3021 20.651 78.625 21.1094C78.9479 21.5573 79.3906 21.7812 79.9531 21.7812C80.3906 21.7812 80.7552 21.6198 81.0469 21.2969C81.3385 20.9635 81.5729 20.5729 81.75 20.125V15.1875C81.75 15.0312 81.7396 14.901 81.7188 14.7969C81.7083 14.6927 81.6927 14.6042 81.6719 14.5312C81.6615 14.4583 81.651 14.3958 81.6406 14.3438C81.6302 14.2812 81.625 14.224 81.625 14.1719C81.625 14.0052 81.7031 13.875 81.8594 13.7812C82.026 13.6771 82.224 13.625 82.4531 13.625C82.9844 13.625 83.4062 13.7656 83.7188 14.0469C84.0312 14.3177 84.1875 14.6458 84.1875 15.0312V20.3125C84.1875 20.4896 84.2083 20.6667 84.25 20.8438C84.2917 21.0104 84.3542 21.1667 84.4375 21.3125C84.5208 21.4479 84.6302 21.5625 84.7656 21.6562C84.9115 21.7396 85.0781 21.7812 85.2656 21.7812ZM106.656 18.9062C106.51 19.4375 106.318 19.9948 106.078 20.5781C105.849 21.1615 105.552 21.6979 105.188 22.1875C104.823 22.6771 104.385 23.0833 103.875 23.4062C103.365 23.7292 102.766 23.8906 102.078 23.8906C101.651 23.8906 101.271 23.8073 100.938 23.6406C100.615 23.4844 100.333 23.2708 100.094 23C99.8646 22.7292 99.6875 22.4115 99.5625 22.0469C99.4479 21.6823 99.3906 21.2969 99.3906 20.8906V14.3906C99.3906 14.1406 99.3854 13.9062 99.375 13.6875C99.3646 13.4688 99.3385 13.276 99.2969 13.1094C99.2552 12.9427 99.1927 12.8125 99.1094 12.7188C99.0365 12.6146 98.9323 12.5625 98.7969 12.5625C98.5781 12.5625 98.3125 12.7188 98 13.0312C97.6875 13.3438 97.3854 13.75 97.0938 14.25C96.8021 14.75 96.5417 15.3177 96.3125 15.9531C96.0833 16.5781 95.9479 17.2083 95.9062 17.8438V22.5156C95.9062 22.6719 95.901 22.8333 95.8906 23C95.8906 23.1562 95.8594 23.2969 95.7969 23.4219C95.7448 23.5573 95.6562 23.6667 95.5312 23.75C95.4167 23.8438 95.2448 23.8906 95.0156 23.8906C94.8594 23.8906 94.6875 23.8698 94.5 23.8281C94.3229 23.7969 94.1562 23.7292 94 23.625C93.8542 23.5312 93.7292 23.3906 93.625 23.2031C93.5312 23.026 93.4844 22.7865 93.4844 22.4844V14.3906C93.4844 14.1406 93.474 13.9062 93.4531 13.6875C93.4427 13.4688 93.4167 13.276 93.375 13.1094C93.3333 12.9427 93.2708 12.8125 93.1875 12.7188C93.1146 12.6146 93.0104 12.5625 92.875 12.5625C92.6562 12.5625 92.3906 12.7188 92.0781 13.0312C91.776 13.3438 91.474 13.75 91.1719 14.25C90.8802 14.75 90.6198 15.3177 90.3906 15.9531C90.1719 16.5781 90.0365 17.2083 89.9844 17.8438V22.5156C89.9844 22.6719 89.9792 22.8333 89.9688 23C89.9688 23.1562 89.9375 23.2969 89.875 23.4219C89.8229 23.5573 89.7344 23.6667 89.6094 23.75C89.4948 23.8438 89.3229 23.8906 89.0938 23.8906C88.9375 23.8906 88.7656 23.8698 88.5781 23.8281C88.401 23.7969 88.2344 23.7292 88.0781 23.625C87.9323 23.5312 87.8073 23.3906 87.7031 23.2031C87.6094 23.026 87.5625 22.7865 87.5625 22.4844V12.3438C87.5625 12.0417 87.5365 11.8229 87.4844 11.6875C87.4427 11.5521 87.4219 11.4271 87.4219 11.3125C87.4219 11.1562 87.5052 11.0312 87.6719 10.9375C87.8385 10.8333 88.0365 10.7812 88.2656 10.7812C88.7969 10.7812 89.2135 10.9219 89.5156 11.2031C89.8281 11.474 89.9844 11.8021 89.9844 12.1875V13.5312C90.1927 13.0938 90.4167 12.6875 90.6562 12.3125C90.9062 11.9375 91.1719 11.6146 91.4531 11.3438C91.7344 11.0625 92.0312 10.8438 92.3438 10.6875C92.6667 10.5312 93.0104 10.4531 93.375 10.4531C93.8542 10.4531 94.25 10.5417 94.5625 10.7188C94.8854 10.8958 95.1406 11.1302 95.3281 11.4219C95.526 11.7135 95.6667 12.0417 95.75 12.4062C95.8333 12.7604 95.8854 13.1146 95.9062 13.4688C96.1042 13.0417 96.3229 12.6458 96.5625 12.2812C96.8021 11.9167 97.0625 11.599 97.3438 11.3281C97.625 11.0573 97.9219 10.8438 98.2344 10.6875C98.5573 10.5312 98.901 10.4531 99.2656 10.4531C99.7865 10.4531 100.214 10.5521 100.547 10.75C100.88 10.9479 101.141 11.2031 101.328 11.5156C101.516 11.8281 101.646 12.1771 101.719 12.5625C101.792 12.9479 101.828 13.3229 101.828 13.6875V20.3125C101.828 20.3854 101.833 20.5052 101.844 20.6719C101.854 20.8281 101.885 20.9896 101.938 21.1562C101.99 21.3229 102.068 21.4688 102.172 21.5938C102.286 21.7188 102.448 21.7812 102.656 21.7812C102.979 21.7812 103.255 21.6667 103.484 21.4375C103.724 21.2083 103.927 20.9219 104.094 20.5781C104.271 20.2344 104.417 19.8646 104.531 19.4688C104.646 19.0625 104.74 18.6823 104.812 18.3281C104.875 17.9948 104.974 17.7552 105.109 17.6094C105.255 17.4531 105.411 17.375 105.578 17.375C105.703 17.375 105.828 17.4167 105.953 17.5C106.089 17.5729 106.208 17.6719 106.312 17.7969C106.427 17.9219 106.516 18.0625 106.578 18.2188C106.651 18.375 106.688 18.5312 106.688 18.6875C106.688 18.7083 106.688 18.7344 106.688 18.7656C106.688 18.7969 106.677 18.8438 106.656 18.9062Z" fill="#1D242B"/>
</svg>
