<svg width="43" height="32" viewBox="0 0 43 32" fill="none" xmlns="http://www.w3.org/2000/svg">
<path d="M8.75 30C8.75 30.6904 9.30964 31.25 10 31.25C10.6904 31.25 11.25 30.6904 11.25 30L8.75 30ZM10.8839 1.11612C10.3957 0.627962 9.60427 0.627962 9.11612 1.11612L1.16117 9.07107C0.673011 9.55922 0.673011 10.3507 1.16117 10.8388C1.64932 11.327 2.44078 11.327 2.92893 10.8388L10 3.76777L17.0711 10.8388C17.5592 11.327 18.3507 11.327 18.8388 10.8388C19.327 10.3507 19.327 9.55922 18.8388 9.07107L10.8839 1.11612ZM11.25 30L11.25 2L8.75 2L8.75 30L11.25 30Z" fill="#9A9A9A"/>
<path d="M32.1431 13H30.2795L34.467 1.36364H36.4954L40.6829 13H38.8193L35.5295 3.47727H35.4386L32.1431 13ZM32.4556 8.44318H38.5011V9.92045H32.4556V8.44318Z" fill="#9A9A9A"/>
<path d="M31.3512 31V29.8295L37.4705 20.875H31.3001V19.3636H39.6183V20.5341L33.499 29.4886H39.6694V31H31.3512Z" fill="#9A9A9A"/>
</svg>
